# AST/ASF file generated using VICON BodyLanguage
# -----------------------------------------------
:version 1.10
:name VICON
:units
  mass 1.0
  length 0.45
  angle deg
:documentation
   .ast/.asf automatically generated from VICON data using
   VICON BodyBuilder and BodyLanguage model FoxedUp or BRILLIANT.MOD
:root
   order TX TY TZ RX RY RZ
   axis XYZ
   position 0 0 0  
   orientation 0 0 0 
:bonedata
  begin
     id 1 
     name lhipjoint
     direction 0.606768 -0.715223 0.346827 
     length 2.41543 
     axis 0 0 0  XYZ
  end
  begin
     id 2 
     name lfemur
     direction 0.34202 -0.939693 0  
     length 7.2778  
     axis 0 0 20  XYZ
    dof rx ry rz
    limits (-160.0 20.0)
           (-70.0 70.0)
           (-60.0 70.0)
  end
  begin
     id 3 
     name ltibia
     direction 0.34202 -0.939693 0   
     length 7.61811   
     axis 0 0 20   XYZ
    dof rx
    limits (-10.0 170.0)
  end
  begin
     id 4 
     name lfoot
     direction 0.0823924 -0.226371 0.97055   
     length 2.33618   
     axis -90 7.62852e-016 20   XYZ
    dof rx rz
    limits (-45.0 90.0)
           (-70.0 20.0)
  end
  begin
     id 5 
     name ltoes
     direction 1.53554e-011 -4.21934e-011 1   
     length 1.17015   
     axis -90 7.62852e-016 20   XYZ
    dof rx
    limits (-90.0 20.0)
  end
  begin
     id 6 
     name rhipjoint
     direction -0.6077 -0.714582 0.346516   
     length 2.4176  
     axis 0 0 0  XYZ 
  end
  begin
     id 7 
     name rfemur
     direction -0.34202 -0.939693 0   
     length 7.28127   
     axis 0 0 -20   XYZ
    dof rx ry rz
    limits (-160.0 20.0)
           (-70.0 70.0)
           (-70.0 60.0)
  end
  begin
     id 8 
     name rtibia
     direction -0.34202 -0.939693 0   
     length 7.77648   
     axis 0 0 -20   XYZ
    dof rx
    limits (-10.0 170.0)
 end
 begin
     id 9 
     name rfoot
     direction -0.0809463 -0.222398 0.97159   
     length 2.37533  
     axis -90 -7.62852e-016 -20   XYZ
    dof rx rz
    limits (-45.0 90.0)
           (-20.0 70.0)
  end
  begin
     id 10 
     name rtoes
     direction -1.53568e-011 -4.21714e-011 1   
     length 1.18972   
     axis -90 -7.62852e-016 -20   XYZ
    dof rx
    limits (-90.0 20.0)
  end
  begin
     id 11 
     name lowerback
     direction 0.010968 0.991932 -0.126297   
     length 2.21698   
     axis 0 0 0   XYZ
    dof rx ry rz
    limits (-20.0 45.0)
           (-30.0 30.0)
           (-30.0 30.0)
  end
  begin
     id 12 
     name upperback
     direction 0.0167007 0.997503 -0.0686276   
     length 2.22371   
     axis 0 0 0   XYZ
    dof rx ry rz
    limits (-20.0 45.0)
           (-30.0 30.0)
           (-30.0 30.0)
  end
  begin
     id 13 
     name thorax
     direction 0.0111721 0.999885 -0.0102878   
     length 2.25242   
     axis 0 0 0   XYZ
    dof rx ry rz
    limits (-20.0 45.0)
           (-30.0 30.0)
           (-30.0 30.0)
  end
  begin
     id 14 
     name lowerneck
     direction -0.0120265 0.990428 0.137508   
     length 1.57674   
     axis 0 0 0   XYZ
    dof rx ry rz
    limits (-20.0 45.0)
           (-30.0 30.0)
           (-30.0 30.0)
  end
  begin
     id 15 
     name upperneck
     direction 0.0175669 0.998907 0.0433089   
     length 1.5618   
     axis 0 0 0   XYZ
    dof rx ry rz
    limits (-20.0 45.0)
           (-30.0 30.0)
           (-30.0 30.0)
  end
  begin
     id 16
     name head
     direction 0.00754609 0.99997 0.00185367  
     length 1.60579  
     axis 0 0 0   XYZ
    dof rx ry rz
    limits (-20.0 45.0)
           (-30.0 30.0)
           (-30.0 30.0)
  end
  begin
     id 17 
     name lclavicle
     direction 0.885866 0.429166 -0.176231  
     length 3.44967  
     axis 0 0 0   XYZ
    dof ry rz
    limits (-20.0 10.0)
           (0.0 20.0)
  end
  begin
     id 18 
     name lhumerus
     direction 1 -4.48973e-011 -1.90255e-027   
     length 5.20607   
     axis 180 -30 -90   XYZ
    dof rx ry rz
    limits (-60.0 90.0)
           (-90.0 90.0)
           (-90.0 90.0)
  end
  begin
     id 19
     name lradius
     direction 1 -4.48956e-011 9.87925e-027   
     length 3.39961   
     axis 180 -30 -90   XYZ
    dof rx
    limits (-10.0 170.0)
  end
  begin
     id 20
     name lwrist
     direction 1 -4.48985e-011 1.73247e-026   
     length 1.6998   
     axis -9.60847e-015 90 90   XYZ
    dof ry
    limits (-180.0 0.0)
 end
  begin
     id 21 
     name lhand
     direction 1 -4.48798e-011 3.46119e-026   
     length 0.519693   
     axis -2.21073e-014 90 90   XYZ
    dof rx rz
    limits (-90.0 90.0)
           (-45.0 45.0)
  end
  begin
     id 22 
     name lfingers
     direction 1 -4.48938e-011 6.92797e-026   
     length 0.41899   
     axis -4.42155e-014 90 90   XYZ
    dof rx
    limits (0.0 90.0)
  end
  begin
     id 23
     name lthumb
     direction 0.707107 -6.34952e-011 0.707107   
     length 0.601588   
     axis -90 45 6.0103e-014   XYZ
    dof rx rz
    limits (-45.0 45.0)
           (-45.0 45.0)
  end
  begin
     id 24 
     name rclavicle
     direction -0.866736 0.456792 -0.200276   
     length 3.45032  
     axis 0 0 0   XYZ 
    dof ry rz
    limits (-10.0 20.0)
           (-20.0 0.0)
  end
  begin
     id 25 
     name rhumerus
     direction -1 -4.4897e-011 8.65094e-028  
     length 5.32214   
     axis 180 30 90   XYZ
    dof rx ry rz
    limits (-90.0 60.0)
           (-90.0 90.0)
           (-90.0 90.0)
  end
  begin
     id 26 
     name rradius
     direction -1 -4.48987e-011 1.08427e-026   
     length 3.51208   
     axis 180 30 90   XYZ
    dof rx
    limits (-10.0 170.0)
  end
  begin
     id 27 
     name rwrist
     direction -1 -4.48961e-011 1.73222e-026   
     length 1.75604   
     axis -9.60847e-015 -90 -90   XYZ
    dof ry
    limits (-180.0 0.0)
  end
  begin
     id 28
     name rhand
     direction -1 -4.48895e-011 3.46314e-026   
     length 0.586681   
     axis -2.21073e-014 -90 -90   XYZ
    dof rx rz
    limits (-90.0 90.0)
           (-45.0 45.0)
  end
  begin
     id 29
     name rfingers
     direction -1 -4.48968e-011 6.92916e-026   
     length 0.472997   
     axis -4.42155e-014 -90 -90   XYZ
    dof rx
    limits (0.0 90.0)
  end
  begin
     id 30
     name rthumb
     direction -0.707107 -6.34848e-011 0.707107   
     length 0.679133   
     axis -90 -45 -6.0103e-014   XYZ
    dof rx rz
    limits (-45.0 45.0)
           (-45.0 45.0)
  end
:hierarchy
  begin
    root lhipjoint rhipjoint lowerback
    lhipjoint lfemur
    lfemur ltibia
    ltibia lfoot
    lfoot ltoes
    rhipjoint rfemur
    rfemur rtibia
    rtibia rfoot
    rfoot rtoes
    lowerback upperback
    upperback thorax
    thorax lowerneck lclavicle rclavicle
    lowerneck upperneck
    upperneck head
    lclavicle lhumerus
    lhumerus lradius
    lradius lwrist
    lwrist lhand lthumb
    lhand lfingers
    rclavicle rhumerus
    rhumerus rradius
    rradius rwrist
    rwrist rhand rthumb
    rhand rfingers
  end

#!OML:ASF H:\Dans Jumps\Project 1\Capture day 1\Session 1\subject.ASF
:FULLY-SPECIFIED
:DEGREES
16
root 0.193348 17.54 -14.3654 8.92887 -0.476011 -1.29796
lowerback 2.50655 -0.0765477 -0.237162
upperback 6.54688 -0.16895 1.5881
thorax 5.37315 -0.143648 1.77547
lowerneck -11.658 0.604529 -1.25591
upperneck 34.9306 1.0452 0.477243
head 13.7715 0.349375 0.567974
rclavicle 9.93923e-017 6.36111e-015
rhumerus -32.1094 -9.20668 -80.421
rradius 36.7672
rwrist 18.3354
rhand -20.7028 -28.0524
rfingers 7.12502
rthumb 5.66127 -57.9568
lclavicle 9.93923e-017 6.36111e-015
lhumerus -27.5672 -3.48438 87.3141
lradius 28.3329
lwrist 14.4571
lhand -26.5826 -4.10504
lfingers 7.12502
lthumb -0.0169433 25.8747
rfemur -21.553 -3.1398 19.9859
rtibia 26.7259
rfoot -13.0009 -3.5359
rtoes 9.46434
lfemur -20.3627 7.15514 -18.867
ltibia 24.01
lfoot -10.6426 4.3809
ltoes 4.89619
17
root 0.194858 17.54 -14.3643 8.92264 -0.483022 -1.293
lowerback 2.49862 -0.0766265 -0.2329
upperback 6.54555 -0.169129 1.58784
thorax 5.37623 -0.143526 1.77281
lowerneck -11.6509 0.59707 -1.2615
upperneck 34.9289 1.03374 0.482198
head 13.7692 0.344353 0.569189
rclavicle 2.88238e-015 -3.97569e-016
rhumerus -32.1 -9.21309 -80.4159
rradius 36.7781
rwrist 18.3353
rhand -20.7137 -28.0477
rfingers 7.12502
rthumb 5.65079 -57.9524
lclavicle 2.88238e-015 -3.97569e-016
lhumerus -27.56 -3.46685 87.3077
lradius 28.3333
lwrist 14.4617
lhand -26.5966 -4.1045
lfingers 7.12502
lthumb -0.0304428 25.8752
rfemur -21.5415 -3.13872 19.9738
rtibia 26.723
rfoot -13.0041 -3.53478
rtoes 9.44162
lfemur -20.3478 7.16006 -18.8777
ltibia 24.0058
lfoot -10.6478 4.38084
ltoes 4.91612
18
root 0.196327 17.5401 -14.3634 8.91838 -0.489644 -1.28874
lowerback 2.49022 -0.0757982 -0.22784
upperback 6.54343 -0.168097 1.5876
thorax 5.3787 -0.142754 1.76974
lowerneck -11.646 0.588875 -1.26611
upperneck 34.9285 1.02149 0.485786
head 13.768 0.338945 0.569599
rclavicle 2.08724e-015 1.49089e-014
rhumerus -32.093 -9.22047 -80.4101
rradius 36.7907
rwrist 18.3311
rhand -20.729 -28.0368
rfingers 7.12502
rthumb 5.63605 -57.9419
lclavicle 2.08724e-015 1.49089e-014
lhumerus -27.5509 -3.4477 87.3009
lradius 28.3322
lwrist 14.4678
lhand -26.608 -4.10842
lfingers 7.12502
lthumb -0.0414607 25.8713
rfemur -21.5326 -3.13883 19.9631
rtibia 26.7206
rfoot -13.0067 -3.53299
rtoes 9.41817
lfemur -20.3351 7.16383 -18.8875
ltibia 24.0007
lfoot -10.6516 4.38194
ltoes 4.9309
19
root 0.197796 17.5402 -14.3624 8.9144 -0.496529 -1.28051
lowerback 2.4826 -0.0744204 -0.226305
upperback 6.54095 -0.166226 1.58586
thorax 5.38033 -0.141692 1.7671
lowerneck -11.6445 0.580567 -1.27028
upperneck 34.9299 1.00891 0.489791
head 13.7684 0.333489 0.570082
rclavicle -1.88845e-015 -8.74653e-015
rhumerus -32.0873 -9.22896 -80.4045
rradius 36.8038
rwrist 18.3273
rhand -20.7462 -28.023
rfingers 7.12502
rthumb 5.61943 -57.9285
lclavicle -1.88845e-015 -8.74653e-015
lhumerus -27.5392 -3.43136 87.2951
lradius 28.3264
lwrist 14.4781
lhand -26.6212 -4.11317
lfingers 7.12502
lthumb -0.0541903 25.8666
rfemur -21.5249 -3.13978 19.9479
rtibia 26.7199
rfoot -13.0091 -3.53069
rtoes 9.39597
lfemur -20.3219 7.16741 -18.9021
ltibia 23.9942
lfoot -10.6541 4.38348
ltoes 4.9405
20
root 0.199182 17.5401 -14.3614 8.911 -0.502955 -1.2737
lowerback 2.47625 -0.0733977 -0.225555
upperback 6.5382 -0.164873 1.58558
thorax 5.38098 -0.140964 1.76641
lowerneck -11.6475 0.572987 -1.27176
upperneck 34.9339 0.99838 0.48918
head 13.771 0.328639 0.568597
rclavicle 0 1.19271e-015
rhumerus -32.0815 -9.23312 -80.399
rradius 36.8173
rwrist 18.318
rhand -20.7677 -28.0078
rfingers 7.12502
rthumb 5.59864 -57.9138
lclavicle 0 1.19271e-015
lhumerus -27.5259 -3.40978 87.2895
lradius 28.3183
lwrist 14.4815
lhand -26.6321 -4.12693
lfingers 7.12502
lthumb -0.0647141 25.8528
rfemur -21.5185 -3.13707 19.9342
rtibia 26.7203
rfoot -13.0111 -3.5317
rtoes 9.37027
lfemur -20.3106 7.17021 -18.9149
ltibia 23.988
lfoot -10.6565 4.38655
ltoes 4.93545
21
root 0.20052 17.5401 -14.3605 8.90826 -0.510875 -1.26632
lowerback 2.47076 -0.0714249 -0.226772
upperback 6.5348 -0.162232 1.58555
thorax 5.38042 -0.139694 1.76711
lowerneck -11.6524 0.565252 -1.27315
upperneck 34.9366 0.987799 0.488108
head 13.7734 0.323731 0.566906
rclavicle 1.39149e-015 1.64991e-014
rhumerus -32.0778 -9.23278 -80.3938
rradius 36.8349
rwrist 18.3049
rhand -20.7869 -27.9956
rfingers 7.12502
rthumb 5.58014 -57.9021
lclavicle 1.39149e-015 1.64991e-014
lhumerus -27.5131 -3.39247 87.2863
lradius 28.3111
lwrist 14.4855
lhand -26.642 -4.13438
lfingers 7.12502
lthumb -0.0743674 25.8453
rfemur -21.5136 -3.13085 19.9197
rtibia 26.7211
rfoot -13.0121 -3.53421
rtoes 9.34615
lfemur -20.3009 7.17485 -18.9285
ltibia 23.9829
lfoot -10.6591 4.38963
ltoes 4.92882
22
root 0.201784 17.54 -14.3598 8.90625 -0.520274 -1.26258
lowerback 2.46545 -0.0686808 -0.225957
upperback 6.53138 -0.158634 1.58674
thorax 5.3797 -0.137881 1.76794
lowerneck -11.6575 0.557736 -1.27397
upperneck 34.9378 0.977928 0.4855
head 13.7752 0.319018 0.564594
rclavicle -9.93923e-017 1.35174e-014
rhumerus -32.0733 -9.22776 -80.3895
rradius 36.8536
rwrist 18.2889
rhand -20.8086 -27.9763
rfingers 7.12502
rthumb 5.5591 -57.8834
lclavicle -9.93923e-017 1.35174e-014
lhumerus -27.4994 -3.37719 87.2842
lradius 28.3054
lwrist 14.4857
lhand -26.6485 -4.14236
lfingers 7.12502
lthumb -0.0805533 25.8374
rfemur -21.5095 -3.11994 19.9091
rtibia 26.7213
rfoot -13.0122 -3.5391
rtoes 9.32849
lfemur -20.294 7.17997 -18.9377
ltibia 23.9805
lfoot -10.6626 4.39492
ltoes 4.92202
23
root 0.202986 17.5399 -14.3591 8.90468 -0.531259 -1.26283
lowerback 2.46264 -0.0650302 -0.221734
upperback 6.52701 -0.15385 1.58837
thorax 5.3765 -0.135303 1.76735
lowerneck -11.6621 0.5504 -1.27449
upperneck 34.9377 0.968116 0.483237
head 13.7764 0.314424 0.562363
rclavicle -3.18055e-015 1.23246e-014
rhumerus -32.0697 -9.22107 -80.3869
rradius 36.8756
rwrist 18.2743
rhand -20.8242 -27.9585
rfingers 7.12502
rthumb 5.54408 -57.866
lclavicle -3.18055e-015 1.23246e-014
lhumerus -27.4874 -3.3691 87.2833
lradius 28.3034
lwrist 14.4871
lhand -26.6501 -4.14278
lfingers 7.12502
lthumb -0.0821684 25.8369
rfemur -21.5062 -3.10427 19.9027
rtibia 26.7201
rfoot -13.0111 -3.54548
rtoes 9.32535
lfemur -20.2895 7.18686 -18.9425
ltibia 23.981
lfoot -10.6666 4.401
ltoes 4.9155
24
root 0.204149 17.5397 -14.3585 8.90289 -0.543566 -1.26475
lowerback 2.4625 -0.061199 -0.216865
upperback 6.52105 -0.148821 1.59061
thorax 5.37008 -0.132565 1.76702
lowerneck -11.6636 0.543498 -1.27711
upperneck 34.9363 0.959153 0.481797
head 13.7762 0.310043 0.560929
rclavicle 8.94531e-016 -1.49089e-014
rhumerus -32.0705 -9.20513 -80.3858
rradius 36.9027
rwrist 18.2574
rhand -20.8337 -27.9446
rfingers 7.12502
rthumb 5.53487 -57.8523
lclavicle 8.94531e-016 -1.49089e-014
lhumerus -27.4786 -3.36427 87.2842
lradius 28.3037
lwrist 14.4868
lhand -26.6481 -4.15217
lfingers 7.12502
lthumb -0.080219 25.8276
rfemur -21.5024 -3.08761 19.8983
rtibia 26.7174
rfoot -13.0094 -3.5511
rtoes 9.32976
lfemur -20.2862 7.19438 -18.9453
ltibia 23.9844
lfoot -10.6707 4.40893
ltoes 4.90901
25
root 0.205235 17.5396 -14.3581 8.9008 -0.557468 -1.26854
lowerback 2.46447 -0.0568161 -0.210001
upperback 6.51443 -0.143015 1.59194
thorax 5.36172 -0.1293 1.76465
lowerneck -11.6678 0.536991 -1.27661
upperneck 34.9366 0.950329 0.479382
head 13.7774 0.305976 0.5586
rclavicle 2.48481e-015 3.97569e-015
rhumerus -32.0715 -9.18828 -80.3877
rradius 36.9302
rwrist 18.2474
rhand -20.8382 -27.9335
rfingers 7.12502
rthumb 5.5306 -57.8413
lclavicle 2.48481e-015 3.97569e-015
lhumerus -27.4714 -3.36832 87.2856
lradius 28.3063
lwrist 14.488
lhand -26.6441 -4.1681
lfingers 7.12502
lthumb -0.0763783 25.8116
rfemur -21.4978 -3.06855 19.8961
rtibia 26.7136
rfoot -13.0075 -3.55741
rtoes 9.33989
lfemur -20.2833 7.20344 -18.9458
ltibia 23.9894
lfoot -10.6741 4.41682
ltoes 4.90737
26
root 0.20629 17.5395 -14.3577 8.89802 -0.569378 -1.27327
lowerback 2.46891 -0.0540098 -0.20219
upperback 6.50718 -0.139296 1.59336
thorax 5.35136 -0.127016 1.76177
lowerneck -11.6702 0.532347 -1.27528
upperneck 34.9347 0.944345 0.475835
head 13.7772 0.303103 0.55606
rclavicle 2.98177e-016 -1.98785e-015
rhumerus -32.0708 -9.1665 -80.3919
rradius 36.9542
rwrist 18.2409
rhand -20.8423 -27.9235
rfingers 7.12502
rthumb 5.5266 -57.8314
lclavicle 2.98177e-016 -1.98785e-015
lhumerus -27.4662 -3.37227 87.287
lradius 28.3113
lwrist 14.4883
lhand -26.6383 -4.19206
lfingers 7.12502
lthumb -0.0707744 25.7877
rfemur -21.492 -3.05137 19.8955
rtibia 26.7094
rfoot -13.0067 -3.56369
rtoes 9.35115
lfemur -20.2803 7.21139 -18.9448
ltibia 23.9943
lfoot -10.6771 4.42392
ltoes 4.90253
27
root 0.207343 17.5395 -14.3573 8.89403 -0.579325 -1.27631
lowerback 2.47382 -0.0520951 -0.195022
upperback 6.50147 -0.136736 1.59387
thorax 5.3424 -0.125328 1.7583
lowerneck -11.6749 0.529126 -1.27238
upperneck 34.9316 0.940232 0.471816
head 13.7769 0.301182 0.553333
rclavicle 1.98785e-015 1.39149e-015
rhumerus -32.0659 -9.14352 -80.3977
rradius 36.9753
rwrist 18.2394
rhand -20.8433 -27.9177
rfingers 7.12502
rthumb 5.52567 -57.8257
lclavicle 1.98785e-015 1.39149e-015
lhumerus -27.4604 -3.37938 87.2895
lradius 28.3193
lwrist 14.4882
lhand -26.6323 -4.20255
lfingers 7.12502
lthumb -0.0649698 25.7772
rfemur -21.4843 -3.03857 19.8934
rtibia 26.7052
rfoot -13.0081 -3.56778
rtoes 9.36493
lfemur -20.2753 7.2175 -18.9451
ltibia 23.9984
lfoot -10.6803 4.42902
ltoes 4.90548
